<svg width="16" height="15" viewBox="0 0 16 15" fill="none" xmlns="http://www.w3.org/2000/svg">
<g clip-path="url(#clip0_163_224)">
<path d="M4.08038 6.10283C4.67343 4.33664 6.36222 3.06818 8.36255 3.06818C9.43784 3.06818 10.4091 3.44318 11.1722 4.05682L13.3921 1.875C12.0393 0.715909 10.305 0 8.36255 0C5.35468 0 2.765 1.68644 1.52002 4.15627L4.08038 6.10283Z" fill="#EA4335"/>
<path d="M10.9323 11.2579C10.2392 11.6977 9.3586 11.9319 8.36269 11.9319C6.37002 11.9319 4.6865 10.6731 4.08738 8.91748L1.51855 10.8344C2.76199 13.3086 5.3516 15.0001 8.36269 15.0001C10.2277 15.0001 12.0099 14.3484 13.3446 13.1248L10.9323 11.2579Z" fill="#34A853"/>
<path d="M13.3442 13.1246C14.7401 11.8449 15.6465 9.93966 15.6465 7.49987C15.6465 7.05668 15.5771 6.57941 15.4731 6.13623H8.3623V9.03396H12.4553C12.2534 10.0084 11.7113 10.7631 10.9319 11.2577L13.3442 13.1246Z" fill="#4A90E2"/>
<path d="M4.0872 8.91741C3.93543 8.47269 3.85325 7.99608 3.85325 7.49998C3.85325 7.01141 3.93296 6.54174 4.08034 6.10282L1.51998 4.15625C1.00908 5.16275 0.731445 6.2971 0.731445 7.49998C0.731445 8.6997 1.01429 9.83134 1.51838 10.8344L4.0872 8.91741Z" fill="#FBBC05"/>
</g>
<defs>
<clipPath id="clip0_163_224">
<rect width="15.2621" height="15" fill="white" transform="translate(0.731445)"/>
</clipPath>
</defs>
</svg>
