<svg width="16" height="15" viewBox="0 0 16 15" fill="none" xmlns="http://www.w3.org/2000/svg">
<path fill-rule="evenodd" clip-rule="evenodd" d="M0.999673 8.27782L0.999673 12.7891C0.999673 13.4127 1.74954 13.9066 2.67412 13.9066L4.34856 13.9066L4.34856 7.40341C4.34004 7.32565 4.30142 7.25432 4.24096 7.2047C4.1805 7.15507 4.10302 7.13108 4.02509 7.13788L2.67412 7.13788C1.74955 7.13788 0.999673 7.65423 0.999673 8.27782ZM14.7896 8.25621L14.7274 8.85385C14.5302 9.66426 13.0149 14 12.1327 14L5.15205 13.9057L5.15205 6.22282C5.15207 6.12699 5.1718 6.0322 5.21 5.94433L6.9398 1.99173C7.07992 1.12683 7.71043 0.786923 8.6696 1.13461C9.24303 1.34305 9.5345 3.12389 9.5345 3.7077L9.30012 5.42365C9.30301 5.51131 9.32325 5.59753 9.35968 5.67732C9.39611 5.7571 9.448 5.82887 9.51234 5.88847C9.57669 5.94808 9.65222 5.99433 9.73456 6.02455C9.8169 6.05477 9.90441 6.06836 9.99204 6.06454L12.9474 6.06454C13.2232 6.0546 13.4977 6.10765 13.7499 6.21966C14.0022 6.33167 14.2256 6.4997 14.4032 6.71097C14.5808 6.92225 14.7079 7.17121 14.7748 7.43896C14.8418 7.70671 14.8469 7.98621 14.7896 8.25621V8.25621Z" stroke="currentColor" stroke-width="1.5" stroke-miterlimit="10"/>
</svg>
