<svg width="17" height="16" viewBox="0 0 17 16" fill="none" xmlns="http://www.w3.org/2000/svg">
<path d="M0.546983 7.12025L0.618461 6.42069C0.745213 5.92155 1.24813 4.40185 1.85481 2.9903C2.16456 2.26962 2.49173 1.6001 2.79876 1.11792C2.95329 0.875242 3.09003 0.700376 3.20299 0.591953C3.26575 0.531715 3.30382 0.508468 3.31871 0.500407L11.3141 0.608705L11.3141 9.57095C11.3141 9.62076 11.3039 9.67004 11.2842 9.71575C11.2841 9.71589 11.284 9.71603 11.284 9.71617L9.16808 14.5804L9.14297 14.6381L9.13296 14.7003C9.06434 15.1259 8.89502 15.3296 8.7182 15.4204C8.52874 15.5177 8.20141 15.5528 7.68869 15.3667C7.6895 15.367 7.68892 15.3665 7.68706 15.3651C7.67434 15.3553 7.60157 15.2993 7.49866 15.1016C7.39088 14.8945 7.29205 14.6132 7.20848 14.296C7.0461 13.6796 6.96478 13.0199 6.95954 12.7001L7.24189 10.6222L7.24743 10.5814L7.24623 10.5403C7.24116 10.3668 7.20173 10.1961 7.13025 10.0379C7.05877 9.8798 6.95664 9.7374 6.82977 9.61898C6.7029 9.50058 6.55382 9.40849 6.39112 9.34806C6.2319 9.28893 6.06276 9.26127 5.89308 9.26658L2.29625 9.26658L2.28905 9.26658L2.28185 9.26678C2.01963 9.27434 1.75911 9.22222 1.51997 9.11435C1.28082 9.00649 1.06932 8.84571 0.901426 8.64415C0.733527 8.44259 0.613616 8.2055 0.550748 7.9508C0.487883 7.69611 0.483704 7.43047 0.538531 7.17392L0.544217 7.14732L0.546983 7.12025ZM14.8374 7.94616L13.2939 7.94616L13.2939 0.614486L14.8379 0.614487C15.3178 0.614487 15.7287 0.74464 16.0049 0.929744C16.2831 1.11621 16.3818 1.32221 16.3818 1.48933L16.3818 7.04315C16.3818 7.21368 16.2799 7.42741 15.9997 7.62036C15.7226 7.81111 15.3131 7.94577 14.8374 7.94616Z" fill="currentColor" stroke="currentColor"/>
</svg>
